<svg width="168" height="155" viewBox="0 0 168 155" fill="none" xmlns="http://www.w3.org/2000/svg">
<path d="M167.885 105.953C166.534 82.949 148.517 64.6761 126.018 62.5499C137.101 38.7377 126.075 10.282 101.634 0.212447C100.29 -0.343513 98.7431 0.226434 98.0781 1.51668C97.4095 2.81042 97.8471 4.39788 99.0827 5.17063C107.511 10.433 112.541 19.4857 112.541 29.3916C112.541 45.1333 99.7232 57.9413 83.9648 57.9413C73.5129 57.9413 64.3525 52.3083 59.3716 43.92C72.6903 36.2274 88.8617 35.189 103.133 41.2171C104.561 41.8185 106.202 41.1542 106.804 39.731C107.406 38.3079 106.741 36.668 105.317 36.0666C89.5688 29.4126 71.7487 30.4825 56.9913 38.8324C52.7098 26.6639 57.0645 12.5247 68.8434 5.17063C70.079 4.39788 70.5166 2.81042 69.8515 1.52018C69.1865 0.226433 67.6358 -0.343513 66.2917 0.212447C41.7212 10.3383 30.8849 38.8656 41.9085 62.5499C19.1494 64.7006 0.987648 83.3732 0.00265805 106.722C-0.0603477 108.177 1.00375 109.436 2.44938 109.618C3.89151 109.799 5.23563 108.845 5.54016 107.422C7.60535 97.7117 14.403 89.8933 23.7208 86.5051C38.3206 81.1972 54.4956 88.5611 60.1171 102.943C60.219 103.814 65.5328 115.542 57.7719 128.23C45.7833 120.719 37.6766 108.607 35.3699 94.6172C35.1179 93.0927 33.6722 92.0612 32.1496 92.3129C30.6269 92.5647 29.5909 94.0018 29.8429 95.5263C32.2851 110.334 40.9221 124.064 54.3906 132.706C44.7668 143.152 28.3391 145.215 16.2581 136.16C15.6659 135.57 15.0701 135.216 14.0704 135.216C11.4112 135.216 10.2544 138.589 12.3483 140.216C13.1929 140.92 24.9599 155 46.2664 155C61.1669 155 75.2564 147.832 84.0033 135.66C100.623 158.955 135.541 162.177 155.924 139.898C156.904 138.825 156.901 137.181 155.91 136.111C154.923 135.045 153.278 134.912 152.134 135.807C144.3 141.919 134.061 143.545 124.744 140.157C109.937 134.772 102.271 118.359 107.662 103.568C111.719 92.4388 122.024 85.3477 133.186 84.8162C133.725 99.6208 127.736 113.586 116.532 123.461C115.373 124.482 115.261 126.251 116.283 127.408C117.322 128.576 119.087 128.671 120.239 127.657C132.193 117.113 139.225 101.736 138.794 85.1029C150.021 86.8086 159.53 95.0252 162.319 106.733C162.519 111.103 168.93 110.272 167.885 105.953V105.953ZM83.9641 101.888C75.4986 101.888 68.6121 95.0085 68.6121 86.5526C68.6121 78.0968 75.4989 71.2172 83.9641 71.2172C92.4293 71.2172 99.3158 78.0968 99.3158 86.5526C99.3158 95.0085 92.4289 101.888 83.9641 101.888Z" fill="white"/>
</svg>
